{
    "asset" : {
        "generator" : "Khronos glTF Blender I/O v0.9.36",
        "version" : "2.0"
    },
    "scene" : 0,
    "scenes" : [
        {
            "name" : "Scene",
            "nodes" : [
                0
            ]
        }
    ],
    "nodes" : [
        {
            "mesh" : 0,
            "name" : "Cube"
        }
    ],
    "meshes" : [
        {
            "name" : "Cube",
            "primitives" : [
                {
                    "attributes" : {
                        "POSITION" : 0,
                        "NORMAL" : 1,
                        "TEXCOORD_0" : 2
                    },
                    "indices" : 3
                }
            ]
        }
    ],
    "accessors" : [
        {
            "bufferView" : 0,
            "componentType" : 5126,
            "count" : 1092,
            "max" : [
                2.998025894165039,
                111.27494812011719,
                2.9834682941436768
            ],
            "min" : [
                -21.221830368041992,
                97.98175048828125,
                -28.47800636291504
            ],
            "type" : "VEC3"
        },
        {
            "bufferView" : 1,
            "componentType" : 5126,
            "count" : 1092,
            "type" : "VEC3"
        },
        {
            "bufferView" : 2,
            "componentType" : 5126,
            "count" : 1092,
            "type" : "VEC2"
        },
        {
            "bufferView" : 3,
            "componentType" : 5123,
            "count" : 2436,
            "type" : "SCALAR"
        }
    ],
    "bufferViews" : [
        {
            "buffer" : 0,
            "byteLength" : 13104,
            "byteOffset" : 0
        },
        {
            "buffer" : 0,
            "byteLength" : 13104,
            "byteOffset" : 13104
        },
        {
            "buffer" : 0,
            "byteLength" : 8736,
            "byteOffset" : 26208
        },
        {
            "buffer" : 0,
            "byteLength" : 4872,
            "byteOffset" : 34944
        }
    ],
    "buffers" : [
        {
            "byteLength" : 39816,
            "uri" : "data:application/octet-stream;base64,"
        }
    ]
}
