{
    "asset" : {
        "generator" : "Khronos glTF Blender I/O v0.9.36",
        "version" : "2.0"
    },
    "scene" : 0,
    "scenes" : [
        {
            "name" : "Scene",
            "nodes" : [
                0
            ]
        }
    ],
    "nodes" : [
        {
            "mesh" : 0,
            "name" : "railing"
        }
    ],
    "meshes" : [
        {
            "name" : "Plane.013",
            "primitives" : [
                {
                    "attributes" : {
                        "POSITION" : 0,
                        "NORMAL" : 1,
                        "TEXCOORD_0" : 2
                    },
                    "indices" : 3
                }
            ]
        }
    ],
    "accessors" : [
        {
            "bufferView" : 0,
            "componentType" : 5126,
            "count" : 3216,
            "max" : [
                22.43199348449707,
                34.35343551635742,
                24.242172241210938
            ],
            "min" : [
                -22.43199348449707,
                30.798931121826172,
                -23.860044479370117
            ],
            "type" : "VEC3"
        },
        {
            "bufferView" : 1,
            "componentType" : 5126,
            "count" : 3216,
            "type" : "VEC3"
        },
        {
            "bufferView" : 2,
            "componentType" : 5126,
            "count" : 3216,
            "type" : "VEC2"
        },
        {
            "bufferView" : 3,
            "componentType" : 5123,
            "count" : 5184,
            "type" : "SCALAR"
        }
    ],
    "bufferViews" : [
        {
            "buffer" : 0,
            "byteLength" : 38592,
            "byteOffset" : 0
        },
        {
            "buffer" : 0,
            "byteLength" : 38592,
            "byteOffset" : 38592
        },
        {
            "buffer" : 0,
            "byteLength" : 25728,
            "byteOffset" : 77184
        },
        {
            "buffer" : 0,
            "byteLength" : 10368,
            "byteOffset" : 102912
        }
    ],
    "buffers" : [
        {
            "byteLength" : 113280,
            "uri" : "data:application/octet-stream;base64,"
        }
    ]
}
