{
    "asset" : {
        "generator" : "Khronos glTF Blender I/O v0.9.36",
        "version" : "2.0"
    },
    "scene" : 0,
    "scenes" : [
        {
            "name" : "Scene",
            "nodes" : [
                0
            ]
        }
    ],
    "nodes" : [
        {
            "mesh" : 0,
            "name" : "suspension.001"
        }
    ],
    "meshes" : [
        {
            "name" : "Plane.001",
            "primitives" : [
                {
                    "attributes" : {
                        "POSITION" : 0,
                        "NORMAL" : 1,
                        "TEXCOORD_0" : 2
                    },
                    "indices" : 3
                }
            ]
        }
    ],
    "accessors" : [
        {
            "bufferView" : 0,
            "componentType" : 5126,
            "count" : 180,
            "max" : [
                -9.253249168395996,
                31.537109375,
                -3.595757484436035
            ],
            "min" : [
                -13.644381523132324,
                -18.203758239746094,
                -26.147037506103516
            ],
            "type" : "VEC3"
        },
        {
            "bufferView" : 1,
            "componentType" : 5126,
            "count" : 180,
            "type" : "VEC3"
        },
        {
            "bufferView" : 2,
            "componentType" : 5126,
            "count" : 180,
            "type" : "VEC2"
        },
        {
            "bufferView" : 3,
            "componentType" : 5123,
            "count" : 444,
            "type" : "SCALAR"
        }
    ],
    "bufferViews" : [
        {
            "buffer" : 0,
            "byteLength" : 2160,
            "byteOffset" : 0
        },
        {
            "buffer" : 0,
            "byteLength" : 2160,
            "byteOffset" : 2160
        },
        {
            "buffer" : 0,
            "byteLength" : 1440,
            "byteOffset" : 4320
        },
        {
            "buffer" : 0,
            "byteLength" : 888,
            "byteOffset" : 5760
        }
    ],
    "buffers" : [
        {
            "byteLength" : 6648,
            "uri" : "data:application/octet-stream;base64,"
        }
    ]
}
