{
    "asset" : {
        "generator" : "Khronos glTF Blender I/O v0.9.36",
        "version" : "2.0"
    },
    "scene" : 0,
    "scenes" : [
        {
            "name" : "Scene",
            "nodes" : [
                0
            ]
        }
    ],
    "nodes" : [
        {
            "mesh" : 0,
            "name" : "girder1"
        }
    ],
    "meshes" : [
        {
            "name" : "Cube.003",
            "primitives" : [
                {
                    "attributes" : {
                        "POSITION" : 0,
                        "NORMAL" : 1,
                        "TEXCOORD_0" : 2
                    },
                    "indices" : 3
                }
            ]
        }
    ],
    "accessors" : [
        {
            "bufferView" : 0,
            "componentType" : 5126,
            "count" : 8928,
            "max" : [
                -14.885162353515625,
                67.8929443359375,
                2.696089267730713
            ],
            "min" : [
                -21.84319496154785,
                -15.36083984375,
                -14.728515625
            ],
            "type" : "VEC3"
        },
        {
            "bufferView" : 1,
            "componentType" : 5126,
            "count" : 8928,
            "type" : "VEC3"
        },
        {
            "bufferView" : 2,
            "componentType" : 5126,
            "count" : 8928,
            "type" : "VEC2"
        },
        {
            "bufferView" : 3,
            "componentType" : 5123,
            "count" : 13392,
            "type" : "SCALAR"
        }
    ],
    "bufferViews" : [
        {
            "buffer" : 0,
            "byteLength" : 107136,
            "byteOffset" : 0
        },
        {
            "buffer" : 0,
            "byteLength" : 107136,
            "byteOffset" : 107136
        },
        {
            "buffer" : 0,
            "byteLength" : 71424,
            "byteOffset" : 214272
        },
        {
            "buffer" : 0,
            "byteLength" : 26784,
            "byteOffset" : 285696
        }
    ],
    "buffers" : [
        {
            "byteLength" : 312480,
            "uri" : "data:application/octet-stream;base64,"
        }
    ]
}
