{
    "asset" : {
        "generator" : "Khronos glTF Blender I/O v0.9.36",
        "version" : "2.0"
    },
    "scene" : 0,
    "scenes" : [
        {
            "name" : "Scene",
            "nodes" : [
                0
            ]
        }
    ],
    "nodes" : [
        {
            "mesh" : 0,
            "name" : "suspension"
        }
    ],
    "meshes" : [
        {
            "name" : "Plane",
            "primitives" : [
                {
                    "attributes" : {
                        "POSITION" : 0,
                        "NORMAL" : 1,
                        "TEXCOORD_0" : 2
                    },
                    "indices" : 3
                }
            ]
        }
    ],
    "accessors" : [
        {
            "bufferView" : 0,
            "componentType" : 5126,
            "count" : 152,
            "max" : [
                5.982616424560547,
                110.05487060546875,
                4.001750469207764
            ],
            "min" : [
                1.3200397491455078,
                17.471656799316406,
                -4.523196697235107
            ],
            "type" : "VEC3"
        },
        {
            "bufferView" : 1,
            "componentType" : 5126,
            "count" : 152,
            "type" : "VEC3"
        },
        {
            "bufferView" : 2,
            "componentType" : 5126,
            "count" : 152,
            "type" : "VEC2"
        },
        {
            "bufferView" : 3,
            "componentType" : 5123,
            "count" : 336,
            "type" : "SCALAR"
        }
    ],
    "bufferViews" : [
        {
            "buffer" : 0,
            "byteLength" : 1824,
            "byteOffset" : 0
        },
        {
            "buffer" : 0,
            "byteLength" : 1824,
            "byteOffset" : 1824
        },
        {
            "buffer" : 0,
            "byteLength" : 1216,
            "byteOffset" : 3648
        },
        {
            "buffer" : 0,
            "byteLength" : 672,
            "byteOffset" : 4864
        }
    ],
    "buffers" : [
        {
            "byteLength" : 5536,
            "uri" : "data:application/octet-stream;base64,"
        }
    ]
}
