{
    "asset" : {
        "generator" : "Khronos glTF Blender I/O v0.9.36",
        "version" : "2.0"
    },
    "scene" : 0,
    "scenes" : [
        {
            "name" : "Scene",
            "nodes" : [
                0
            ]
        }
    ],
    "nodes" : [
        {
            "mesh" : 0,
            "name" : "room"
        }
    ],
    "meshes" : [
        {
            "name" : "Circle",
            "primitives" : [
                {
                    "attributes" : {
                        "POSITION" : 0,
                        "NORMAL" : 1,
                        "TEXCOORD_0" : 2
                    },
                    "indices" : 3
                }
            ]
        }
    ],
    "accessors" : [
        {
            "bufferView" : 0,
            "componentType" : 5126,
            "count" : 281,
            "max" : [
                29.08698081970215,
                98.6058578491211,
                30.110803604125977
            ],
            "min" : [
                -29.08698081970215,
                -18.865840911865234,
                -29.51717185974121
            ],
            "type" : "VEC3"
        },
        {
            "bufferView" : 1,
            "componentType" : 5126,
            "count" : 281,
            "type" : "VEC3"
        },
        {
            "bufferView" : 2,
            "componentType" : 5126,
            "count" : 281,
            "type" : "VEC2"
        },
        {
            "bufferView" : 3,
            "componentType" : 5123,
            "count" : 717,
            "type" : "SCALAR"
        }
    ],
    "bufferViews" : [
        {
            "buffer" : 0,
            "byteLength" : 3372,
            "byteOffset" : 0
        },
        {
            "buffer" : 0,
            "byteLength" : 3372,
            "byteOffset" : 3372
        },
        {
            "buffer" : 0,
            "byteLength" : 2248,
            "byteOffset" : 6744
        },
        {
            "buffer" : 0,
            "byteLength" : 1434,
            "byteOffset" : 8992
        }
    ],
    "buffers" : [
        {
            "byteLength" : 10428,
            "uri" : "data:application/octet-stream;base64,"
        }
    ]
}
