{
    "asset" : {
        "generator" : "Khronos glTF Blender I/O v0.9.36",
        "version" : "2.0"
    },
    "scene" : 0,
    "scenes" : [
        {
            "name" : "Scene",
            "nodes" : [
                0
            ]
        }
    ],
    "nodes" : [
        {
            "mesh" : 0,
            "name" : "truck",
            "rotation" : [
                -0.06042803078889847,
                0.07950778305530548,
                0.004828693810850382,
                0.994989275932312
            ],
            "scale" : [
                1.3651186227798462,
                1.3651185035705566,
                1.3651186227798462
            ]
        }
    ],
    "meshes" : [
        {
            "name" : "BezierCurve.011",
            "primitives" : [
                {
                    "attributes" : {
                        "POSITION" : 0,
                        "NORMAL" : 1,
                        "TEXCOORD_0" : 2
                    },
                    "indices" : 3
                }
            ]
        }
    ],
    "accessors" : [
        {
            "bufferView" : 0,
            "componentType" : 5126,
            "count" : 10372,
            "max" : [
                4.685369491577148,
                16.79376983642578,
                8.556157112121582
            ],
            "min" : [
                0.4542500972747803,
                11.859301567077637,
                -2.98443865776062
            ],
            "type" : "VEC3"
        },
        {
            "bufferView" : 1,
            "componentType" : 5126,
            "count" : 10372,
            "type" : "VEC3"
        },
        {
            "bufferView" : 2,
            "componentType" : 5126,
            "count" : 10372,
            "type" : "VEC2"
        },
        {
            "bufferView" : 3,
            "componentType" : 5123,
            "count" : 29190,
            "type" : "SCALAR"
        }
    ],
    "bufferViews" : [
        {
            "buffer" : 0,
            "byteLength" : 124464,
            "byteOffset" : 0
        },
        {
            "buffer" : 0,
            "byteLength" : 124464,
            "byteOffset" : 124464
        },
        {
            "buffer" : 0,
            "byteLength" : 82976,
            "byteOffset" : 248928
        },
        {
            "buffer" : 0,
            "byteLength" : 58380,
            "byteOffset" : 331904
        }
    ],
    "buffers" : [
        {
            "byteLength" : 390284,
            "uri" : "data:application/octet-stream;base64,"
        }
    ]
}
